PathFileType	4	(X/Y/Z)	E:\Qualisys_Data\Carbon_Farble_Plate\Data\Amateur_Runner\S14\T3\S14T3V13_c3d.trc
DataRate	CameraRate	NumFrames	NumMarkers	Units	OrigDataRate	OrigDataStartFrame	OrigNumFrames
200.000000	200.000000	4	39	mm	200.000000	168	336
Frame#	Time	LSHO			RSHO			LICST			RICST			LASIS			LHEEL			RASIS			LTROC			RTROC			SACR			LTH1			LSK4			LTH2			LTH3			RHM5			LSK2			LTH4			RTH1			LTOE			RTH2			RTH3			RTH4			LLEP			RLEP			LSK1			LSK3			RSK1			LHM5			RSK2			LFT1			RSK3			RSK4			LLME			RLME			RTOE			RHEEL			RFT1			RFT2			LFT2			
		X1	Y1	Z1	X2	Y2	Z2	X3	Y3	Z3	X4	Y4	Z4	X5	Y5	Z5	X6	Y6	Z6	X7	Y7	Z7	X8	Y8	Z8	X9	Y9	Z9	X10	Y10	Z10	X11	Y11	Z11	X12	Y12	Z12	X13	Y13	Z13	X14	Y14	Z14	X15	Y15	Z15	X16	Y16	Z16	X17	Y17	Z17	X18	Y18	Z18	X19	Y19	Z19	X20	Y20	Z20	X21	Y21	Z21	X22	Y22	Z22	X23	Y23	Z23	X24	Y24	Z24	X25	Y25	Z25	X26	Y26	Z26	X27	Y27	Z27	X28	Y28	Z28	X29	Y29	Z29	X30	Y30	Z30	X31	Y31	Z31	X32	Y32	Z32	X33	Y33	Z33	X34	Y34	Z34	X35	Y35	Z35	X36	Y36	Z36	X37	Y37	Z37	X38	Y38	Z38	X39	Y39	Z39	

169	0.84	-85.2672348022461	1465.045043945312	-467.8560791015625	-162.1165161132812	1466.708374023438	-181.3355712890625	-180.5147705078125	1018.959045410156	-454.9004516601562	-170.7528228759766	1029.859619140625	-183.6501770019531	-149.2907104492188	964.6775512695312	-433.8983459472656	-736.4503173828125	338.9341125488281	-357.4222106933594	-145.0107727050781	985.8922729492188	-203.6695709228516	-302.45458984375	926.2255249023438	-476.0498962402344	-274.7119445800781	907.1473388671876	-143.9565124511719	-315.776123046875	1032.0048828125	-328.1292419433594	-322.4059753417969	694.3350219726562	-473.71826171875	-604.2437744140625	447.7677917480469	-421.878662109375	-391.9215393066406	723.4376831054688	-443.9617919921875	-349.3197937011719	600.3853149414062	-451.7107849121094	130.8572845458984	134.7099609375	-152.3137969970703	-533.231689453125	515.8336791992188	-438.6084899902344	-423.1710205078125	630.7389526367188	-429.5409240722656	-82.11878967285156	724.1763916015625	-155.6179351806641	-684.0636596679688	80.58037567138672	-368.6334533691406	-154.3888549804688	700.242919921875	-143.4387969970703	-47.9638786315918	632.3016967773438	-181.0465545654297	-125.5471343994141	603.9616088867188	-163.1506805419922	-431.3358459472656	551.5700073242188	-443.83642578125	-77.45977783203125	547.6227416992188	-169.0501556396484	-475.7421264648438	456.4599609375	-445.0155639648438	-550.78369140625	386.9981689453125	-433.629638671875	-33.08990097045898	434.2817993164062	-164.9243621826172	-724.4807739257812	140.2630767822266	-429.5431823730469	-115.9245376586914	413.3277893066406	-170.023681640625	-756.9487915039062	323.0924072265625	-322.8493347167969	-13.64217185974121	332.7000732421875	-174.7029113769531	-90.91304779052734	320.1676025390625	-179.4785003662109	-704.62255859375	294.3149719238281	-413.0492248535156	-11.49509143829346	151.1214141845703	-194.5204315185547	196.3643798828125	180.920654296875	-212.1158905029297	-48.81983184814453	102.8264694213867	-253.4317321777344	-24.32345581054688	83.76580810546875	-281.5372314453125	-44.18707275390625	78.42443084716797	-232.3168640136719	-766.43798828125	327.1944274902344	-378.4747619628906
170	0.845	-69.3048095703125	1464.676513671875	-466.8876037597656	-147.0494232177734	1465.696899414062	-180.5136108398438	-164.0221099853516	1018.376342773438	-454.5105285644531	-153.9272613525391	1028.337890625	-183.2837066650391	-132.8098602294922	964.1585693359376	-433.6116333007812	-725.0303344726562	345.5306091308594	-356.6178894042969	-128.4252624511719	984.0929565429688	-203.9261016845703	-285.5941772460938	925.49609375	-476.4515075683594	-257.9739074707031	905.4100341796876	-143.7396850585938	-299.427490234375	1031.028564453125	-327.7955017089844	-304.4123229980469	692.640625	-473.76416015625	-589.1927490234375	451.5209655761719	-422.5851745605469	-374.0252380371094	721.3986206054688	-444.5399780273438	-331.5053100585938	598.5422973632812	-451.0238037109375	153.2772521972656	137.3825836181641	-152.1457824707031	-516.4972534179688	517.3414916992188	-438.958251953125	-404.5886840820312	628.8208618164062	-430.3677673339844	-66.32038879394531	720.6948852539062	-154.8744506835938	-674.6409912109375	86.82769012451172	-370.1801452636719	-139.2046966552734	696.9238891601562	-141.3124084472656	-33.37853622436523	628.9017944335938	-181.0107727050781	-110.7375030517578	600.8051147460938	-162.1047210693359	-413.6931762695312	550.287353515625	-444.5102844238281	-62.49499130249023	544.8145141601562	-168.3766937255859	-460.2499389648438	456.6629333496094	-446.4121704101562	-537.1712646484375	389.3843994140625	-433.7305603027344	-15.72237014770508	432.8258972167969	-165.0246276855469	-714.3058471679688	146.8618469238281	-430.55810546875	-98.16720581054688	410.9128112792969	-170.2051086425781	-746.0023803710938	329.1013793945312	-322.7654418945312	5.557080745697021	331.8104248046875	-175.1052093505859	-71.68375396728516	318.1712341308594	-179.8577575683594	-693.410400390625	300.7076416015625	-412.4801940917969	10.4565258026123	150.3239440917969	-195.496337890625	217.4840393066406	184.6634216308594	-211.5462341308594	-25.38704109191895	100.9577865600586	-254.3450622558594	-0.4703254699707031	82.843994140625	-282.769287109375	-20.00662040710449	76.78959655761719	-233.3585662841797	-755.184326171875	334.6008605957031	-377.2337341308594
171	0.85	-53.53190231323242	1463.87744140625	-465.9150390625	-131.9299468994141	1464.251342773438	-179.8389587402344	-147.7330322265625	1017.526672363281	-454.1205749511719	-137.4483642578125	1026.253784179688	-183.4747924804688	-116.0984039306641	963.2039794921876	-433.5751037597656	-712.9490356445312	351.8403625488281	-355.4122314453125	-111.8087158203125	982.3340454101562	-203.8089599609375	-268.3746643066406	924.3367919921876	-476.3500671386719	-241.0649108886719	902.9776611328124	-144.3169708251953	-283.0094299316406	1029.462524414062	-327.369873046875	-286.1340942382812	690.8152465820312	-473.7213439941406	-573.642822265625	455.2694396972656	-422.8144226074219	-355.8763732910156	719.4144287109375	-445.4751892089844	-312.6299438476562	596.73095703125	-451.5328369140625	174.4081878662109	138.8406677246094	-152.7837371826172	-499.1385803222656	519.122314453125	-439.7403259277344	-386.4124450683594	626.3875122070312	-430.6701354980469	-50.46500396728516	717.4346923828125	-153.72314453125	-665.010009765625	92.88822174072266	-371.7364501953125	-123.7315673828125	693.0037231445312	-139.7362060546875	-17.48986434936523	625.7020263671875	-180.4026031494141	-95.9803466796875	597.0596923828125	-161.4282531738281	-395.3418273925781	549.1994018554688	-445.1865539550781	-46.35754776000977	542.2659301757812	-168.0377960205078	-445.2175598144531	456.5938110351562	-444.8441772460938	-523.1790771484375	391.6472778320312	-433.4898986816406	2.092037916183472	431.8008117675781	-165.4444274902344	-704.0700073242188	154.4060516357422	-431.1717224121094	-80.34684753417969	408.4795532226562	-170.4758453369141	-734.2647094726562	335.9801635742188	-321.6448059082031	24.30025482177734	330.9522399902344	-175.5313110351562	-52.81707000732422	316.4942016601562	-180.4376831054688	-681.8751220703125	307.1697387695312	-412.0150756835938	31.53359222412109	149.3842315673828	-196.4426574707031	237.7682800292969	188.0952911376953	-211.7995758056641	-3.240469932556152	99.401611328125	-255.4230041503906	22.30632781982422	81.63299560546875	-283.6113586425781	2.179407596588135	75.1387710571289	-234.3888092041016	-743.3200073242188	341.1523742675781	-376.4501953125
172	0.855	-37.62224197387695	1462.804809570312	-465.0908508300781	-116.9552993774414	1462.753051757812	-179.2077026367188	-131.0968780517578	1016.304260253906	-453.9150085449219	-120.5062789916992	1024.0380859375	-182.9502868652344	-99.64125061035156	962.0669555664062	-433.3098754882812	-700.3890991210938	358.061767578125	-354.3536987304688	-95.34558868408205	980.1986083984376	-204.0987396240234	-251.6513824462891	922.8319702148438	-476.5544128417969	-224.5623779296875	900.537109375	-143.8233337402344	-266.5321350097656	1027.8623046875	-326.63037109375	-267.1589965820312	688.663818359375	-473.7195739746094	-557.3562622070312	458.7506408691406	-422.9777526855469	-337.9435729980469	716.724609375	-446.1853332519531	-293.5076904296875	594.6412353515625	-452.081298828125	194.2935943603516	139.6634674072266	-153.4246063232422	-481.1288146972656	520.3356323242188	-440.5622863769531	-367.6903686523438	623.6619262695312	-431.7229919433594	-34.76577758789062	713.8618774414062	-152.5760803222656	-654.3970336914062	99.04681396484376	-373.0431823730469	-108.2104949951172	689.4283447265625	-138.0773162841797	-2.214771270751953	622.10986328125	-179.9934997558594	-80.5235824584961	593.7266235351562	-160.572509765625	-376.871337890625	547.4632568359375	-445.7796936035156	-30.19351387023926	540.1668090820312	-167.9064788818359	-429.2889099121094	456.3935241699219	-445.3246765136719	-508.8101196289062	393.3428955078125	-433.4359436035156	19.84152984619141	430.2354125976562	-165.6946716308594	-693.0892333984375	161.1155853271484	-431.9892272949219	-62.54131317138672	406.2498474121094	-170.5596313476562	-721.585693359375	342.0030822753906	-320.6050109863281	42.75847625732422	329.6585388183594	-176.2062072753906	-34.08468627929688	314.3927307128906	-180.3504943847656	-669.5755615234375	313.3756103515625	-411.4721984863281	51.21576690673828	148.4160003662109	-197.3643951416016	256.9423217773438	189.933349609375	-212.2335968017578	17.36710166931152	97.78864288330078	-256.3872680664062	43.2780647277832	80.35234069824219	-284.4668884277344	23.0783519744873	73.59549713134766	-235.6272583007812	-730.5690307617188	347.6944580078125	-375.4685974121094
